<svg width="807" height="111" viewBox="0 0 807 111" fill="none" xmlns="http://www.w3.org/2000/svg">
<path d="M174.072 21.44C181.08 21.44 187.256 22.944 192.6 25.952C197.976 28.96 202.184 33.168 205.224 38.576C208.264 43.952 209.784 50.24 209.784 57.44C209.784 64.64 208.264 70.944 205.224 76.352C202.184 81.728 197.976 85.92 192.6 88.928C187.256 91.936 181.08 93.44 174.072 93.44C167.064 93.44 160.872 91.936 155.496 88.928C150.152 85.92 145.96 81.728 142.92 76.352C139.88 70.944 138.36 64.64 138.36 57.44C138.36 50.24 139.88 43.952 142.92 38.576C145.96 33.168 150.152 28.96 155.496 25.952C160.872 22.944 167.064 21.44 174.072 21.44ZM174.072 29.6C168.792 29.6 164.168 30.704 160.2 32.912C156.264 35.088 153.192 38.256 150.984 42.416C148.776 46.544 147.672 51.552 147.672 57.44C147.672 63.296 148.776 68.304 150.984 72.464C153.192 76.624 156.264 79.808 160.2 82.016C164.168 84.192 168.792 85.28 174.072 85.28C179.032 85.28 183.496 84.192 187.464 82.016C191.464 79.808 194.632 76.624 196.968 72.464C199.304 68.304 200.472 63.296 200.472 57.44C200.472 51.552 199.304 46.544 196.968 42.416C194.632 38.256 191.464 35.088 187.464 32.912C183.496 30.704 179.032 29.6 174.072 29.6ZM266.276 67.04C266.276 72.96 265.108 77.872 262.772 81.776C260.436 85.68 257.428 88.608 253.748 90.56C250.1 92.48 246.276 93.44 242.276 93.44C234.084 93.44 228.324 90.176 224.996 83.648C224.74 83.136 224.42 82.88 224.036 82.88C223.652 82.88 223.46 83.072 223.46 83.456V110.24H214.82V42.08H223.46V50.624C223.46 51.008 223.652 51.2 224.036 51.2C224.42 51.2 224.74 50.944 224.996 50.432C228.324 43.904 234.084 40.64 242.276 40.64C246.276 40.64 250.1 41.616 253.748 43.568C257.428 45.488 260.436 48.4 262.772 52.304C265.108 56.208 266.276 61.12 266.276 67.04ZM257.54 67.04C257.54 61.024 255.924 56.4 252.692 53.168C249.46 49.936 245.316 48.32 240.26 48.32C235.236 48.32 231.092 49.936 227.828 53.168C224.596 56.4 222.98 61.024 222.98 67.04C222.98 73.024 224.596 77.648 227.828 80.912C231.092 84.144 235.236 85.76 240.26 85.76C245.316 85.76 249.46 84.144 252.692 80.912C255.924 77.648 257.54 73.024 257.54 67.04ZM268.82 67.04C268.82 61.6 269.844 56.912 271.892 52.976C273.972 49.008 276.884 45.968 280.628 43.856C284.404 41.712 288.852 40.64 293.972 40.64C299.156 40.64 303.508 41.68 307.028 43.76C310.58 45.808 313.252 48.64 315.044 52.256C316.868 55.872 317.78 60 317.78 64.64V69.44H277.412C277.7 75.04 279.396 79.2 282.5 81.92C285.636 84.608 289.524 85.952 294.164 85.952C298.836 85.952 302.292 85.024 304.532 83.168C306.772 81.312 308.244 78.976 308.948 76.16H317.972C317.62 78.048 316.916 80 315.86 82.016C314.804 84.032 313.332 85.904 311.444 87.632C309.588 89.36 307.236 90.768 304.388 91.856C301.54 92.912 298.132 93.44 294.164 93.44C285.908 93.44 279.62 91.088 275.3 86.384C270.98 81.648 268.82 75.2 268.82 67.04ZM293.972 48.128C289.844 48.128 286.26 49.312 283.22 51.68C280.212 54.016 278.356 57.536 277.652 62.24H309.14C308.948 57.632 307.508 54.128 304.82 51.728C302.164 49.328 298.548 48.128 293.972 48.128ZM323.331 92V42.08H331.971V50.144C331.971 50.528 332.163 50.72 332.547 50.72C332.931 50.72 333.219 50.528 333.411 50.144C334.819 47.36 336.771 45.088 339.267 43.328C341.763 41.536 345.411 40.64 350.211 40.64C356.227 40.64 360.931 42.384 364.323 45.872C367.715 49.328 369.411 54.304 369.411 60.8V92H360.771V62.24C360.771 57.664 359.603 54.208 357.267 51.872C354.963 49.504 351.651 48.32 347.331 48.32C342.531 48.32 338.771 49.776 336.051 52.688C333.331 55.6 331.971 60.064 331.971 66.08V92H323.331ZM382.629 22.88L400.293 88.064C400.389 88.448 400.677 88.64 401.157 88.64C401.637 88.64 401.925 88.448 402.021 88.064L419.685 22.88H428.853V24.8L410.181 92H392.133L373.461 24.8V22.88H382.629ZM431.235 22.88H443.715V34.4H431.235V22.88ZM433.155 42.08H441.795V92H433.155V42.08ZM450.192 92V22.88H458.832V50.624C458.832 51.008 459.024 51.2 459.408 51.2C459.792 51.2 460.112 50.944 460.368 50.432C463.696 43.904 469.456 40.64 477.648 40.64C481.648 40.64 485.472 41.616 489.12 43.568C492.8 45.488 495.808 48.4 498.144 52.304C500.48 56.208 501.648 61.12 501.648 67.04C501.648 72.96 500.48 77.872 498.144 81.776C495.808 85.68 492.8 88.608 489.12 90.56C485.472 92.48 481.648 93.44 477.648 93.44C469.296 93.44 463.376 89.952 459.888 82.976C459.632 82.464 459.28 82.208 458.832 82.208C458.448 82.208 458.192 82.432 458.064 82.88L455.952 92H450.192ZM458.352 67.04C458.352 73.024 459.968 77.648 463.2 80.912C466.464 84.144 470.608 85.76 475.632 85.76C480.688 85.76 484.832 84.144 488.064 80.912C491.296 77.648 492.912 73.024 492.912 67.04C492.912 61.024 491.296 56.4 488.064 53.168C484.832 49.936 480.688 48.32 475.632 48.32C470.608 48.32 466.464 49.936 463.2 53.168C459.968 56.4 458.352 61.024 458.352 67.04ZM504.193 67.04C504.193 61.6 505.217 56.912 507.265 52.976C509.345 49.008 512.257 45.968 516.001 43.856C519.777 41.712 524.225 40.64 529.345 40.64C534.529 40.64 538.881 41.68 542.401 43.76C545.953 45.808 548.625 48.64 550.417 52.256C552.241 55.872 553.153 60 553.153 64.64V69.44H512.785C513.073 75.04 514.769 79.2 517.873 81.92C521.009 84.608 524.897 85.952 529.537 85.952C534.209 85.952 537.665 85.024 539.905 83.168C542.145 81.312 543.617 78.976 544.321 76.16H553.345C552.993 78.048 552.289 80 551.233 82.016C550.177 84.032 548.705 85.904 546.817 87.632C544.961 89.36 542.609 90.768 539.761 91.856C536.913 92.912 533.505 93.44 529.537 93.44C521.281 93.44 514.993 91.088 510.673 86.384C506.353 81.648 504.193 75.2 504.193 67.04ZM529.345 48.128C525.217 48.128 521.633 49.312 518.593 51.68C515.585 54.016 513.729 57.536 513.025 62.24H544.513C544.321 57.632 542.881 54.128 540.193 51.728C537.537 49.328 533.921 48.128 529.345 48.128ZM555.343 57.44C555.343 50.24 556.767 43.952 559.615 38.576C562.495 33.168 566.527 28.96 571.711 25.952C576.927 22.944 583.055 21.44 590.095 21.44C597.135 21.44 602.959 22.736 607.567 25.328C612.207 27.92 615.663 31.36 617.935 35.648C620.239 39.936 621.423 44.624 621.487 49.712H612.271C612.143 46.16 611.279 42.864 609.679 39.824C608.111 36.784 605.711 34.336 602.479 32.48C599.279 30.624 595.151 29.696 590.095 29.696C584.975 29.696 580.511 30.832 576.703 33.104C572.895 35.376 569.935 38.592 567.823 42.752C565.711 46.88 564.655 51.776 564.655 57.44C564.655 63.072 565.711 67.968 567.823 72.128C569.935 76.288 572.895 79.504 576.703 81.776C580.511 84.048 584.975 85.184 590.095 85.184C595.183 85.184 599.391 84.24 602.719 82.352C606.079 80.464 608.607 77.888 610.303 74.624C611.999 71.36 612.943 67.696 613.135 63.632H622.351C622.127 69.04 620.799 74 618.367 78.512C615.935 83.024 612.367 86.64 607.663 89.36C602.991 92.08 597.135 93.44 590.095 93.44C583.055 93.44 576.927 91.936 571.711 88.928C566.527 85.92 562.495 81.728 559.615 76.352C556.767 70.944 555.343 64.64 555.343 57.44ZM649.877 40.64C654.709 40.64 659.093 41.648 663.029 43.664C666.965 45.648 670.085 48.608 672.389 52.544C674.725 56.448 675.893 61.28 675.893 67.04C675.893 72.8 674.725 77.648 672.389 81.584C670.085 85.488 666.965 88.448 663.029 90.464C659.093 92.448 654.709 93.44 649.877 93.44C645.045 93.44 640.661 92.448 636.725 90.464C632.789 88.448 629.653 85.488 627.317 81.584C625.013 77.648 623.861 72.8 623.861 67.04C623.861 61.28 625.013 56.448 627.317 52.544C629.653 48.608 632.789 45.648 636.725 43.664C640.661 41.648 645.045 40.64 649.877 40.64ZM649.877 48.32C644.853 48.32 640.709 49.936 637.445 53.168C634.213 56.4 632.597 61.024 632.597 67.04C632.597 73.024 634.213 77.648 637.445 80.912C640.709 84.144 644.853 85.76 649.877 85.76C654.933 85.76 659.077 84.144 662.309 80.912C665.541 77.648 667.157 73.024 667.157 67.04C667.157 61.024 665.541 56.4 662.309 53.168C659.077 49.936 654.933 48.32 649.877 48.32ZM678.491 67.04C678.491 61.12 679.659 56.208 681.995 52.304C684.331 48.4 687.323 45.488 690.971 43.568C694.651 41.616 698.491 40.64 702.491 40.64C710.683 40.64 716.443 43.904 719.771 50.432C720.027 50.944 720.347 51.2 720.731 51.2C721.115 51.2 721.307 51.008 721.307 50.624V22.88H729.947V92H721.307V83.456C721.307 83.072 721.115 82.88 720.731 82.88C720.347 82.88 720.027 83.136 719.771 83.648C716.443 90.176 710.683 93.44 702.491 93.44C698.491 93.44 694.651 92.48 690.971 90.56C687.323 88.608 684.331 85.68 681.995 81.776C679.659 77.872 678.491 72.96 678.491 67.04ZM687.227 67.04C687.227 73.024 688.843 77.648 692.075 80.912C695.339 84.144 699.483 85.76 704.507 85.76C709.563 85.76 713.707 84.144 716.939 80.912C720.171 77.648 721.787 73.024 721.787 67.04C721.787 61.024 720.171 56.4 716.939 53.168C713.707 49.936 709.563 48.32 704.507 48.32C699.483 48.32 695.339 49.936 692.075 53.168C688.843 56.4 687.227 61.024 687.227 67.04ZM735.372 67.04C735.372 61.6 736.396 56.912 738.444 52.976C740.524 49.008 743.436 45.968 747.18 43.856C750.956 41.712 755.404 40.64 760.524 40.64C765.708 40.64 770.06 41.68 773.58 43.76C777.132 45.808 779.804 48.64 781.596 52.256C783.42 55.872 784.332 60 784.332 64.64V69.44H743.964C744.252 75.04 745.948 79.2 749.052 81.92C752.188 84.608 756.076 85.952 760.716 85.952C765.388 85.952 768.844 85.024 771.084 83.168C773.324 81.312 774.796 78.976 775.5 76.16H784.524C784.172 78.048 783.468 80 782.412 82.016C781.356 84.032 779.884 85.904 777.996 87.632C776.14 89.36 773.788 90.768 770.94 91.856C768.092 92.912 764.684 93.44 760.716 93.44C752.46 93.44 746.172 91.088 741.852 86.384C737.532 81.648 735.372 75.2 735.372 67.04ZM760.524 48.128C756.396 48.128 752.812 49.312 749.772 51.68C746.764 54.016 744.908 57.536 744.204 62.24H775.692C775.5 57.632 774.06 54.128 771.372 51.728C768.716 49.328 765.1 48.128 760.524 48.128Z" fill="black"/>
<g clip-path="url(#clip0_11_2)">
<path d="M33.6572 53.5C33.6572 29.1667 53.4848 9 77.9429 9H79.7144C104.172 9 124 28.7261 124 53.0594V98H77.9429C53.4848 98 33.6572 77.8331 33.6572 53.5Z" fill="#D9D9D9" fill-opacity="0.64"/>
<path d="M77.943 9.44067H79.7144C103.928 9.44067 123.557 28.9695 123.557 53.0595V97.5595H77.943C53.7351 97.5595 34.1001 77.5957 34.1001 53.5001C34.1001 29.4043 53.7351 9.44067 77.943 9.44067Z" stroke="#D9D9D9" stroke-opacity="0.1" stroke-width="2"/>
<path d="M0 53.5C0 29.1667 19.8274 9 44.2857 9H46.0571C70.5153 9 90.3429 28.7261 90.3429 53.0594V98H44.2857C19.8274 98 0 77.8331 0 53.5Z" fill="#8C52FF" fill-opacity="0.64"/>
<path d="M44.2857 9.44067H46.0572C70.2708 9.44067 89.9 28.9695 89.9 53.0595V97.5595H44.2857C20.0777 97.5595 0.442871 77.5957 0.442871 53.5001C0.442871 29.4043 20.0777 9.44067 44.2857 9.44067Z" stroke="#8C52FF" stroke-opacity="0.1" stroke-width="2"/>
</g>
<defs>
<clipPath id="clip0_11_2">
<rect width="124" height="89" fill="white" transform="translate(0 9)"/>
</clipPath>
</defs>
</svg>
