<svg width="704" height="82" viewBox="0 0 704 82" fill="none" xmlns="http://www.w3.org/2000/svg">
<path d="M1.59889e-05 64.414V4.214H28.208C35.432 4.214 40.936 5.64733 44.72 8.514C48.504 11.3233 50.396 15.1073 50.396 19.866C50.396 23.0767 49.6507 25.8287 48.16 28.122C46.6694 30.358 44.6627 32.1067 42.14 33.368C39.6747 34.572 36.98 35.174 34.056 35.174L35.604 32.078C38.9867 32.078 42.0254 32.7087 44.72 33.97C47.4147 35.174 49.536 36.9513 51.084 39.302C52.6894 41.6527 53.492 44.5767 53.492 48.074C53.492 53.234 51.514 57.2473 47.558 60.114C43.602 62.9807 37.7254 64.414 29.928 64.414H1.59889e-05ZM11.18 55.642H29.24C33.4254 55.642 36.636 54.954 38.872 53.578C41.108 52.202 42.226 49.9947 42.226 46.956C42.226 43.9747 41.108 41.796 38.872 40.42C36.636 38.9867 33.4254 38.27 29.24 38.27H10.32V29.584H27.004C30.9027 29.584 33.884 28.896 35.948 27.52C38.0694 26.144 39.13 24.08 39.13 21.328C39.13 18.5187 38.0694 16.426 35.948 15.05C33.884 13.674 30.9027 12.986 27.004 12.986H11.18V55.642ZM79.8718 65.016C75.1705 65.016 70.9852 64.0127 67.3158 62.006C63.6465 59.942 60.7512 57.1327 58.6298 53.578C56.5085 50.0233 55.4478 45.9813 55.4478 41.452C55.4478 36.8653 56.5085 32.8233 58.6298 29.326C60.7512 25.7713 63.6465 22.9907 67.3158 20.984C70.9852 18.9773 75.1705 17.974 79.8718 17.974C84.6305 17.974 88.8445 18.9773 92.5138 20.984C96.2405 22.9907 99.1358 25.7427 101.2 29.24C103.321 32.7373 104.382 36.808 104.382 41.452C104.382 45.9813 103.321 50.0233 101.2 53.578C99.1358 57.1327 96.2405 59.942 92.5138 62.006C88.8445 64.0127 84.6305 65.016 79.8718 65.016ZM79.8718 55.814C82.5092 55.814 84.8598 55.2407 86.9238 54.094C88.9878 52.9473 90.5932 51.2847 91.7398 49.106C92.9438 46.9273 93.5458 44.376 93.5458 41.452C93.5458 38.4707 92.9438 35.9193 91.7398 33.798C90.5932 31.6193 88.9878 29.9567 86.9238 28.81C84.8598 27.6633 82.5378 27.09 79.9578 27.09C77.3205 27.09 74.9698 27.6633 72.9058 28.81C70.8992 29.9567 69.2938 31.6193 68.0898 33.798C66.8858 35.9193 66.2838 38.4707 66.2838 41.452C66.2838 44.376 66.8858 46.9273 68.0898 49.106C69.2938 51.2847 70.8992 52.9473 72.9058 54.094C74.9698 55.2407 77.2918 55.814 79.8718 55.814ZM126.788 65.016C121.742 65.016 117.844 63.726 115.092 61.146C112.34 58.5087 110.964 54.6387 110.964 49.536V8.342H121.714V49.278C121.714 51.4567 122.258 53.148 123.348 54.352C124.494 55.556 126.071 56.158 128.078 56.158C130.486 56.158 132.492 55.5273 134.098 54.266L137.108 61.92C135.846 62.952 134.298 63.726 132.464 64.242C130.629 64.758 128.737 65.016 126.788 65.016ZM103.396 27.09V18.49H134.012V27.09H103.396ZM141.161 64.414V15.91C141.161 11.094 142.566 7.25267 145.375 4.386C148.242 1.462 152.312 3.57628e-07 157.587 3.57628e-07C159.479 3.57628e-07 161.256 0.200666 162.919 0.601998C164.639 1.00333 166.072 1.634 167.219 2.494L164.295 10.578C163.492 9.94733 162.575 9.48867 161.543 9.202C160.511 8.858 159.45 8.686 158.361 8.686C156.125 8.686 154.434 9.31667 153.287 10.578C152.14 11.782 151.567 13.6167 151.567 16.082V21.242L151.911 26.058V64.414H141.161ZM133.593 27.434V18.834H164.209V27.434H133.593ZM171.433 64.414V0.601998H182.183V64.414H171.433ZM211.868 65.016C207.167 65.016 202.982 64.0127 199.312 62.006C195.643 59.942 192.748 57.1327 190.626 53.578C188.505 50.0233 187.444 45.9813 187.444 41.452C187.444 36.8653 188.505 32.8233 190.626 29.326C192.748 25.7713 195.643 22.9907 199.312 20.984C202.982 18.9773 207.167 17.974 211.868 17.974C216.627 17.974 220.841 18.9773 224.51 20.984C228.237 22.9907 231.132 25.7427 233.196 29.24C235.318 32.7373 236.378 36.808 236.378 41.452C236.378 45.9813 235.318 50.0233 233.196 53.578C231.132 57.1327 228.237 59.942 224.51 62.006C220.841 64.0127 216.627 65.016 211.868 65.016ZM211.868 55.814C214.506 55.814 216.856 55.2407 218.92 54.094C220.984 52.9473 222.59 51.2847 223.736 49.106C224.94 46.9273 225.542 44.376 225.542 41.452C225.542 38.4707 224.94 35.9193 223.736 33.798C222.59 31.6193 220.984 29.9567 218.92 28.81C216.856 27.6633 214.534 27.09 211.954 27.09C209.317 27.09 206.966 27.6633 204.902 28.81C202.896 29.9567 201.29 31.6193 200.086 33.798C198.882 35.9193 198.28 38.4707 198.28 41.452C198.28 44.376 198.882 46.9273 200.086 49.106C201.29 51.2847 202.896 52.9473 204.902 54.094C206.966 55.2407 209.288 55.814 211.868 55.814ZM250.386 64.414L233.53 18.49H243.678L258.126 58.996H253.31L268.446 18.49H277.476L292.182 58.996H287.452L302.33 18.49H311.876L294.934 64.414H284.614L271.198 28.552H274.38L260.706 64.414H250.386ZM361.611 65.274C357.025 65.274 352.753 64.5287 348.797 63.038C344.899 61.49 341.487 59.34 338.563 56.588C335.697 53.7787 333.461 50.482 331.855 46.698C330.25 42.914 329.447 38.786 329.447 34.314C329.447 29.842 330.25 25.714 331.855 21.93C333.461 18.146 335.725 14.878 338.649 12.126C341.573 9.31667 344.985 7.16667 348.883 5.676C352.782 4.128 357.053 3.354 361.697 3.354C366.628 3.354 371.129 4.214 375.199 5.934C379.27 7.59667 382.71 10.0907 385.519 13.416L378.295 20.21C376.117 17.8593 373.68 16.1107 370.985 14.964C368.291 13.76 365.367 13.158 362.213 13.158C359.06 13.158 356.165 13.674 353.527 14.706C350.947 15.738 348.683 17.2 346.733 19.092C344.841 20.984 343.351 23.22 342.261 25.8C341.229 28.38 340.713 31.218 340.713 34.314C340.713 37.41 341.229 40.248 342.261 42.828C343.351 45.408 344.841 47.644 346.733 49.536C348.683 51.428 350.947 52.89 353.527 53.922C356.165 54.954 359.06 55.47 362.213 55.47C365.367 55.47 368.291 54.8967 370.985 53.75C373.68 52.546 376.117 50.74 378.295 48.332L385.519 55.212C382.71 58.48 379.27 60.974 375.199 62.694C371.129 64.414 366.599 65.274 361.611 65.274ZM408.16 65.016C403.459 65.016 399.273 64.0127 395.604 62.006C391.935 59.942 389.039 57.1327 386.918 53.578C384.797 50.0233 383.736 45.9813 383.736 41.452C383.736 36.8653 384.797 32.8233 386.918 29.326C389.039 25.7713 391.935 22.9907 395.604 20.984C399.273 18.9773 403.459 17.974 408.16 17.974C412.919 17.974 417.133 18.9773 420.802 20.984C424.529 22.9907 427.424 25.7427 429.488 29.24C431.609 32.7373 432.67 36.808 432.67 41.452C432.67 45.9813 431.609 50.0233 429.488 53.578C427.424 57.1327 424.529 59.942 420.802 62.006C417.133 64.0127 412.919 65.016 408.16 65.016ZM408.16 55.814C410.797 55.814 413.148 55.2407 415.212 54.094C417.276 52.9473 418.881 51.2847 420.028 49.106C421.232 46.9273 421.834 44.376 421.834 41.452C421.834 38.4707 421.232 35.9193 420.028 33.798C418.881 31.6193 417.276 29.9567 415.212 28.81C413.148 27.6633 410.826 27.09 408.246 27.09C405.609 27.09 403.258 27.6633 401.194 28.81C399.187 29.9567 397.582 31.6193 396.378 33.798C395.174 35.9193 394.572 38.4707 394.572 41.452C394.572 44.376 395.174 46.9273 396.378 49.106C397.582 51.2847 399.187 52.9473 401.194 54.094C403.258 55.2407 405.58 55.814 408.16 55.814ZM437.79 64.414V18.49H448.024V30.702L446.218 27.09C447.766 24.1087 450.002 21.844 452.926 20.296C455.907 18.748 459.29 17.974 463.074 17.974C467.374 17.974 471.1 19.0347 474.254 21.156C477.464 23.2773 479.586 26.488 480.618 30.788L476.404 29.326C477.894 25.886 480.36 23.134 483.8 21.07C487.24 19.006 491.224 17.974 495.754 17.974C499.423 17.974 502.662 18.6907 505.472 20.124C508.338 21.5573 510.574 23.7647 512.18 26.746C513.785 29.67 514.588 33.454 514.588 38.098V64.414H503.838V39.474C503.838 35.4033 502.949 32.3647 501.172 30.358C499.394 28.3513 496.843 27.348 493.518 27.348C491.167 27.348 489.074 27.864 487.24 28.896C485.462 29.928 484.058 31.4473 483.026 33.454C482.051 35.4607 481.564 38.012 481.564 41.108V64.414H470.814V39.474C470.814 35.4033 469.925 32.3647 468.148 30.358C466.37 28.3513 463.819 27.348 460.494 27.348C458.143 27.348 456.05 27.864 454.216 28.896C452.438 29.928 451.034 31.4473 450.002 33.454C449.027 35.4607 448.54 38.012 448.54 41.108V64.414H437.79ZM548.621 65.016C544.894 65.016 541.483 64.156 538.387 62.436C535.348 60.716 532.912 58.136 531.077 54.696C529.3 51.1987 528.411 46.784 528.411 41.452C528.411 36.0627 529.271 31.648 530.991 28.208C532.768 24.768 535.176 22.2167 538.215 20.554C541.254 18.834 544.722 17.974 548.621 17.974C553.15 17.974 557.135 18.9487 560.575 20.898C564.072 22.8473 566.824 25.5707 568.831 29.068C570.895 32.5653 571.927 36.6933 571.927 41.452C571.927 46.2107 570.895 50.3673 568.831 53.922C566.824 57.4193 564.072 60.1427 560.575 62.092C557.135 64.0413 553.15 65.016 548.621 65.016ZM523.165 81.098V18.49H533.399V29.326L533.055 41.538L533.915 53.75V81.098H523.165ZM547.417 55.814C549.997 55.814 552.29 55.2407 554.297 54.094C556.361 52.9473 557.995 51.2847 559.199 49.106C560.403 46.9273 561.005 44.376 561.005 41.452C561.005 38.4707 560.403 35.9193 559.199 33.798C557.995 31.6193 556.361 29.9567 554.297 28.81C552.29 27.6633 549.997 27.09 547.417 27.09C544.837 27.09 542.515 27.6633 540.451 28.81C538.387 29.9567 536.753 31.6193 535.549 33.798C534.345 35.9193 533.743 38.4707 533.743 41.452C533.743 44.376 534.345 46.9273 535.549 49.106C536.753 51.2847 538.387 52.9473 540.451 54.094C542.515 55.2407 544.837 55.814 547.417 55.814ZM596.398 65.016C592.499 65.016 589.059 64.2993 586.078 62.866C583.097 61.3753 580.775 59.1393 579.112 56.158C577.449 53.1193 576.618 49.3067 576.618 44.72V18.49H587.368V43.258C587.368 47.386 588.285 50.482 590.12 52.546C592.012 54.5527 594.678 55.556 598.118 55.556C600.641 55.556 602.819 55.04 604.654 54.008C606.546 52.976 608.008 51.428 609.04 49.364C610.129 47.3 610.674 44.7487 610.674 41.71V18.49H621.424V64.414H611.19V52.03L612.996 55.814C611.448 58.7953 609.183 61.0887 606.202 62.694C603.221 64.242 599.953 65.016 596.398 65.016ZM647.625 65.016C642.58 65.016 638.681 63.726 635.929 61.146C633.177 58.5087 631.801 54.6387 631.801 49.536V8.342H642.551V49.278C642.551 51.4567 643.096 53.148 644.185 54.352C645.332 55.556 646.908 56.158 648.915 56.158C651.323 56.158 653.33 55.5273 654.935 54.266L657.945 61.92C656.684 62.952 655.136 63.726 653.301 64.242C651.466 64.758 649.574 65.016 647.625 65.016ZM624.233 27.09V18.49H654.849V27.09H624.233ZM681.703 65.016C676.6 65.016 672.128 64.0127 668.287 62.006C664.503 59.942 661.55 57.1327 659.429 53.578C657.365 50.0233 656.333 45.9813 656.333 41.452C656.333 36.8653 657.336 32.8233 659.343 29.326C661.407 25.7713 664.216 22.9907 667.771 20.984C671.383 18.9773 675.482 17.974 680.069 17.974C684.541 17.974 688.525 18.9487 692.023 20.898C695.52 22.8473 698.272 25.5993 700.279 29.154C702.285 32.7087 703.289 36.894 703.289 41.71C703.289 42.1687 703.26 42.6847 703.203 43.258C703.203 43.8313 703.174 44.376 703.117 44.892H664.847V37.754H697.441L693.227 39.99C693.284 37.3527 692.739 35.0307 691.593 33.024C690.446 31.0173 688.869 29.4407 686.863 28.294C684.913 27.1473 682.649 26.574 680.069 26.574C677.431 26.574 675.109 27.1473 673.103 28.294C671.153 29.4407 669.605 31.046 668.459 33.11C667.369 35.1167 666.825 37.496 666.825 40.248V41.968C666.825 44.72 667.455 47.1567 668.717 49.278C669.978 51.3993 671.755 53.0333 674.049 54.18C676.342 55.3267 678.979 55.9 681.961 55.9C684.541 55.9 686.863 55.4987 688.927 54.696C690.991 53.8933 692.825 52.632 694.431 50.912L700.193 57.534C698.129 59.942 695.52 61.8053 692.367 63.124C689.271 64.3853 685.716 65.016 681.703 65.016Z" fill="white"/>
</svg>
