<svg width="12" height="12" viewBox="0 0 12 12" fill="none" xmlns="http://www.w3.org/2000/svg">
<path d="M6 8.4042C5.36284 8.4042 4.75178 8.15122 4.30124 7.70091C3.85071 7.25059 3.5976 6.63984 3.5976 6.003C3.5976 5.36616 3.85071 4.75541 4.30124 4.3051C4.75178 3.85478 5.36284 3.6018 6 3.6018C6.63716 3.6018 7.24822 3.85478 7.69876 4.3051C8.14929 4.75541 8.4024 5.36616 8.4024 6.003C8.4024 6.63984 8.14929 7.25059 7.69876 7.70091C7.24822 8.15122 6.63716 8.4042 6 8.4042ZM5.3994 0.6003C5.3994 0.441091 5.46268 0.288402 5.57531 0.175824C5.68795 0.0632457 5.84071 0 6 0C6.15929 0 6.31205 0.0632457 6.42469 0.175824C6.53732 0.288402 6.6006 0.441091 6.6006 0.6003V1.8009C6.6006 1.96011 6.53732 2.1128 6.42469 2.22538C6.31205 2.33795 6.15929 2.4012 6 2.4012C5.84071 2.4012 5.68795 2.33795 5.57531 2.22538C5.46268 2.1128 5.3994 1.96011 5.3994 1.8009V0.6003ZM9.39339 1.76488C9.44724 1.70204 9.51349 1.651 9.58801 1.61497C9.66252 1.57894 9.74368 1.55869 9.82639 1.5555C9.90911 1.55231 9.99159 1.56624 10.0687 1.59642C10.1457 1.6266 10.2157 1.67237 10.2743 1.73088C10.3328 1.78938 10.3786 1.85934 10.4088 1.93637C10.439 2.01341 10.4529 2.09585 10.4497 2.17852C10.4465 2.26119 10.4263 2.34231 10.3902 2.41679C10.3542 2.49127 10.3031 2.55749 10.2402 2.61131L9.3994 3.45173C9.34556 3.51457 9.2793 3.5656 9.20479 3.60164C9.13027 3.63767 9.04911 3.65792 8.9664 3.66111C8.88368 3.6643 8.8012 3.65037 8.72413 3.62019C8.64706 3.59001 8.57706 3.54424 8.51853 3.48573C8.46 3.42723 8.4142 3.35727 8.384 3.28023C8.35381 3.2032 8.33987 3.12076 8.34306 3.03809C8.34626 2.95541 8.36652 2.87429 8.40257 2.79982C8.43862 2.72534 8.48968 2.65912 8.55255 2.6053L9.39339 1.76488ZM11.3994 5.4027C11.5587 5.4027 11.7115 5.46595 11.8241 5.57853C11.9367 5.6911 12 5.84379 12 6.003C12 6.16221 11.9367 6.3149 11.8241 6.42748C11.7115 6.54006 11.5587 6.6033 11.3994 6.6033H10.2102C10.0509 6.6033 9.89816 6.54006 9.78552 6.42748C9.67289 6.3149 9.60961 6.16221 9.60961 6.003C9.60961 5.84379 9.67289 5.6911 9.78552 5.57853C9.89816 5.46595 10.0509 5.4027 10.2102 5.4027H11.3994ZM10.2402 9.3947C10.3031 9.44851 10.3542 9.51474 10.3902 9.58921C10.4263 9.66369 10.4465 9.74481 10.4497 9.82748C10.4529 9.91016 10.439 9.9926 10.4088 10.0696C10.3786 10.1467 10.3328 10.2166 10.2743 10.2751C10.2157 10.3336 10.1457 10.3794 10.0687 10.4096C9.99159 10.4398 9.90911 10.4537 9.82639 10.4505C9.74368 10.4473 9.66252 10.4271 9.58801 10.391C9.51349 10.355 9.44724 10.304 9.39339 10.2411L8.55255 9.4007C8.48968 9.34688 8.43862 9.28066 8.40257 9.20618C8.36652 9.13171 8.34626 9.05059 8.34306 8.96792C8.33987 8.88524 8.35381 8.8028 8.384 8.72577C8.4142 8.64874 8.46 8.57877 8.51853 8.52027C8.57706 8.46177 8.64706 8.41599 8.72413 8.38581C8.8012 8.35563 8.88368 8.3417 8.9664 8.34489C9.04911 8.34809 9.13027 8.36834 9.20479 8.40437C9.2793 8.4404 9.34556 8.49144 9.3994 8.55428L10.2402 9.3947ZM6.6006 11.3997C6.6006 11.5589 6.53732 11.7116 6.42469 11.8242C6.31205 11.9368 6.15929 12 6 12C5.84071 12 5.68795 11.9368 5.57531 11.8242C5.46268 11.7116 5.3994 11.5589 5.3994 11.3997V10.2111C5.3994 10.0519 5.46268 9.89921 5.57531 9.78663C5.68795 9.67405 5.84071 9.61081 6 9.61081C6.15929 9.61081 6.31205 9.67405 6.42469 9.78663C6.53732 9.89921 6.6006 10.0519 6.6006 10.2111V11.3997ZM2.60661 10.2411C2.55276 10.304 2.48651 10.355 2.41199 10.391C2.33748 10.4271 2.25632 10.4473 2.17361 10.4505C2.09089 10.4537 2.00841 10.4398 1.93134 10.4096C1.85427 10.3794 1.78427 10.3336 1.72574 10.2751C1.6672 10.2166 1.6214 10.1467 1.59121 10.0696C1.56101 9.9926 1.54708 9.91016 1.55027 9.82748C1.55347 9.74481 1.57372 9.66369 1.60977 9.58921C1.64582 9.51474 1.69689 9.44851 1.75976 9.3947L2.6006 8.55428C2.65444 8.49144 2.7207 8.4404 2.79521 8.40437C2.86973 8.36834 2.95089 8.34809 3.0336 8.34489C3.11632 8.3417 3.1988 8.35563 3.27587 8.38581C3.35294 8.41599 3.42294 8.46177 3.48147 8.52027C3.54 8.57877 3.5858 8.64874 3.616 8.72577C3.64619 8.8028 3.66013 8.88524 3.65694 8.96792C3.65374 9.05059 3.63348 9.13171 3.59743 9.20618C3.56138 9.28066 3.51032 9.34688 3.44745 9.4007L2.60661 10.2411ZM0.600601 6.6033C0.441311 6.6033 0.288546 6.54006 0.175912 6.42748C0.0632774 6.3149 0 6.16221 0 6.003C0 5.84379 0.0632774 5.6911 0.175912 5.57853C0.288546 5.46595 0.441311 5.4027 0.600601 5.4027H1.78979C1.94908 5.4027 2.10184 5.46595 2.21448 5.57853C2.32711 5.6911 2.39039 5.84379 2.39039 6.003C2.39039 6.16221 2.32711 6.3149 2.21448 6.42748C2.10184 6.54006 1.94908 6.6033 1.78979 6.6033H0.600601ZM1.75976 2.61131C1.69689 2.55749 1.64582 2.49127 1.60977 2.41679C1.57372 2.34231 1.55347 2.26119 1.55027 2.17852C1.54708 2.09585 1.56101 2.01341 1.59121 1.93637C1.6214 1.85934 1.6672 1.78938 1.72574 1.73088C1.78427 1.67237 1.85427 1.6266 1.93134 1.59642C2.00841 1.56624 2.09089 1.55231 2.17361 1.5555C2.25632 1.55869 2.33748 1.57894 2.41199 1.61497C2.48651 1.651 2.55276 1.70204 2.60661 1.76488L3.44745 2.6053C3.51032 2.65912 3.56138 2.72534 3.59743 2.79982C3.63348 2.87429 3.65374 2.95541 3.65694 3.03809C3.66013 3.12076 3.64619 3.2032 3.616 3.28023C3.5858 3.35727 3.54 3.42723 3.48147 3.48573C3.42294 3.54424 3.35294 3.59001 3.27587 3.62019C3.1988 3.65037 3.11632 3.6643 3.0336 3.66111C2.95089 3.65792 2.86973 3.63767 2.79521 3.60164C2.7207 3.5656 2.65444 3.51457 2.6006 3.45173L1.75976 2.61131Z" fill="white"/>
</svg>
